<svg width="75" height="75" viewBox="0 0 75 75" fill="none" xmlns="http://www.w3.org/2000/svg">
<path d="M37.5009 75C58.2109 75 75 58.2096 75 37.5002C75 16.787 58.2128 0 37.5009 0C16.7891 0 0 16.787 0 37.4998C0 58.2096 16.7891 75 37.5009 75Z" fill="#907D7D"/>
<path d="M17.9518 37.4L24.3508 30.9819C24.7671 30.504 24.7164 29.7795 24.2377 29.3638C23.8014 28.985 23.1509 28.989 22.7192 29.3733L16.3236 35.7632L9.90276 29.3617C9.45139 28.9169 8.7241 28.9218 8.27888 29.3724C7.83335 29.823 7.83827 30.5491 8.28964 30.9935L14.6887 37.3898L8.29302 43.7914C7.82721 44.2214 7.79894 44.9472 8.23003 45.4122C8.66081 45.8772 9.38779 45.9054 9.8536 45.4751C9.8705 45.4594 9.88709 45.4432 9.90307 45.4266L16.3156 39.022L22.703 45.4018C23.1359 45.8612 23.8598 45.8833 24.3198 45.4515C24.5511 45.2343 24.6817 44.9306 24.6799 44.6135C24.6814 44.3101 24.561 44.019 24.3459 43.8049L17.9502 37.3935L17.9518 37.4ZM55.9938 37.3984C55.9938 38.5487 56.9288 39.4821 58.081 39.4821C59.2339 39.4815 60.1679 38.5484 60.1676 37.3975C60.1673 36.2466 59.2323 35.3142 58.0795 35.3145C56.9322 35.3145 55.9987 36.2479 55.9987 37.3981L55.9938 37.3984ZM52.0443 37.3984C52.0443 34.0728 54.7494 31.3637 58.0792 31.3637C61.4022 31.3637 64.1125 34.0728 64.1125 37.3984C64.1125 40.7241 61.404 43.4331 58.0792 43.4331C54.7448 43.4276 52.0443 40.7274 52.0443 37.3984ZM49.6697 37.3984C49.6697 42.0329 53.4438 45.807 58.0795 45.807C62.7151 45.807 66.4892 42.0363 66.4892 37.4C66.4892 32.7655 62.7151 28.9915 58.0795 28.9915C53.4337 29.0007 49.6716 32.7621 49.6697 37.4V37.3984ZM49.0736 29.135H48.7231C47.6627 29.135 46.6408 29.4684 45.7875 30.127C45.6667 29.6028 45.2009 29.2301 44.662 29.2267C44.0349 29.2267 43.5264 29.7344 43.5264 30.3604C43.5264 30.3626 43.5264 30.365 43.5264 30.3672L43.5297 44.5285C43.5648 45.1601 44.1062 45.6435 44.7388 45.6085C45.3238 45.576 45.7903 45.1091 45.821 44.5251V35.8166C45.821 32.9158 46.0883 31.7423 48.5731 31.4325C48.8069 31.4042 49.054 31.4091 49.0574 31.4091C49.7355 31.384 50.2197 30.9156 50.2197 30.284C50.2179 29.65 49.7026 29.1372 49.0675 29.1372L49.0736 29.135ZM27.0544 36.0163C27.0544 35.9829 27.0578 35.9497 27.0593 35.9197C27.8825 32.6735 31.1858 30.7083 34.4376 31.53C36.6323 32.0846 38.3358 33.8118 38.8572 36.0114H27.0525L27.0544 36.0163ZM41.2035 35.7997C40.7091 33.4609 39.4284 31.5389 37.4795 30.3052C34.5918 28.4958 30.8979 28.5942 28.1114 30.5552C25.2901 32.5815 23.9858 36.1163 24.8166 39.4855C25.6852 42.8387 28.512 45.326 31.9537 45.7652C32.9689 45.8885 33.9576 45.8318 34.9762 45.5653C35.8682 45.3487 36.7181 44.9861 37.4911 44.4917C38.3044 43.9699 38.9841 43.2798 39.6453 42.4547C39.6555 42.4381 39.6687 42.4264 39.6822 42.4096C40.1397 41.8427 40.0546 41.0326 39.5538 40.6492C39.1298 40.3241 38.4181 40.1925 37.8605 40.9093C37.7403 41.0826 37.6048 41.2593 37.4598 41.4345C37.014 41.9261 36.4612 42.4013 35.8 42.7715C34.955 43.2215 33.9963 43.4767 32.9778 43.4834C29.6412 43.4451 27.8579 41.1164 27.2215 39.456C27.1103 39.141 27.0249 38.8177 26.9659 38.4892L26.9493 38.314H38.9223C40.5622 38.2772 41.444 37.1187 41.2001 35.7967L41.2035 35.7997Z" fill="#614546"/>
</svg>
